<svg xmlns="http://www.w3.org/2000/svg" xmlns:xlink="http://www.w3.org/1999/xlink" version="1.1" data-diagram-type="ACTIVITY" style="width:510px;height:1097px;background:#FFFFFF;" width="510px" height="1097px" viewBox="0 0 510 1097" zoomAndPan="magnify" preserveAspectRatio="none" contentStyleType="text/css"><?plantuml 1.2026.8?><defs/><g font-family="sans-serif" lengthAdjust="spacing"><g class="title" data-source-line="2"><text x="97.797" y="34.966" fill="#000" font-size="14" textLength="312.885" font-weight="700" font-family="Helvetica">How recall answers a question (mode = auto)</text></g><ellipse cx="224.981" cy="65.068" rx="10" ry="10" fill="#222" style="stroke:#222;stroke-width:1;"/><rect x="187.135" y="95.068" width="75.692" height="37.706" fill="#F8FAFC" style="stroke:#64748B;stroke-width:0.5;" rx="6" ry="6"/><text x="197.135" y="118.965" fill="#000" font-size="13" textLength="55.692" font-family="Helvetica">Question</text><rect x="114.725" y="152.774" width="220.512" height="37.706" fill="#F8FAFC" style="stroke:#64748B;stroke-width:0.5;" rx="6" ry="6"/><text x="124.725" y="176.671" fill="#000" font-size="13" textLength="200.512" font-family="Helvetica">Vector top-20 (+ keyword search)</text><rect x="100.155" y="200.48" width="249.651" height="105.118" fill="#FFF" style="stroke:#94A3B8;stroke-width:1.5;" rx="6" ry="6"/><path d="M257.653,200.48 L257.653,211.186 L247.653,221.186 L100.155,221.186" style="stroke:#94A3B8;stroke-width:1.5;" fill="none"/><text x="103.155" y="215.377" fill="#000" font-size="13" textLength="147.498" font-family="Helvetica">lite  ·  1 Jev call  ·  ~0.25 s</text><rect x="110.155" y="238.186" width="229.651" height="55.412" fill="#F8FAFC" style="stroke:#64748B;stroke-width:0.5;" rx="6" ry="6"/><text x="120.155" y="262.083" fill="#000" font-size="13" textLength="182.962" font-family="Helvetica">Relevance filter + sufficiency +</text><text x="120.155" y="279.789" fill="#000" font-size="13" textLength="209.651" font-family="Helvetica">"is this multi-hop or time-related?"</text><rect x="65.419" y="374.995" width="327.836" height="391.442" fill="#FFF" style="stroke:#94A3B8;stroke-width:1.5;" rx="6" ry="6"/><path d="M229.625,374.995 L229.625,385.701 L219.625,395.701 L65.419,395.701" style="stroke:#94A3B8;stroke-width:1.5;" fill="none"/><text x="68.419" y="389.892" fill="#000" font-size="13" textLength="154.206" font-family="Helvetica">full  ·  ~6 Jev calls  ·  ~1.4 s</text><rect x="90.584" y="412.701" width="268.794" height="37.706" fill="#F8FAFC" style="stroke:#64748B;stroke-width:0.5;" rx="6" ry="6"/><text x="100.584" y="436.598" fill="#000" font-size="13" textLength="248.794" font-family="Helvetica">Route: facts / timelines / causes / entities</text><rect x="75.419" y="470.407" width="299.123" height="37.706" fill="#F8FAFC" style="stroke:#64748B;stroke-width:0.5;" rx="6" ry="6"/><text x="85.419" y="494.304" fill="#000" font-size="13" textLength="279.123" font-family="Helvetica">Anchors (RRF of vector + BM25), judged by Jev</text><rect x="100.386" y="572.113" width="249.19" height="55.412" fill="#F8FAFC" style="stroke:#64748B;stroke-width:0.5;" rx="6" ry="6"/><text x="110.386" y="596.01" fill="#000" font-size="13" textLength="163.67" font-family="Helvetica">Expand along graph edges</text><text x="110.386" y="613.716" fill="#000" font-size="13" textLength="229.19" font-family="Helvetica">(budget: depth, nodes, calls, seconds)</text><rect x="114.536" y="655.025" width="220.889" height="55.412" fill="#F8FAFC" style="stroke:#64748B;stroke-width:0.5;" rx="6" ry="6"/><text x="124.536" y="678.922" fill="#000" font-size="13" textLength="190.944" font-family="Helvetica">Stop check: sufficient? missing?</text><text x="124.536" y="696.628" fill="#000" font-size="13" textLength="200.889" font-family="Helvetica">contradiction? worth continuing?</text><polygon points="224.981,528.113,236.981,540.113,224.981,552.113,212.981,540.113,224.981,528.113" fill="#E0F2FE" style="stroke:#0284C7;stroke-width:0.5;stroke-linejoin:miter;stroke-miterlimit:10;"/><polygon points="127.292,730.437,322.67,730.437,334.67,742.437,322.67,754.437,127.292,754.437,115.292,742.437,127.292,730.437" fill="#E0F2FE" style="stroke:#0284C7;stroke-width:0.5;stroke-linejoin:miter;stroke-miterlimit:10;"/><text x="127.292" y="747.481" fill="#000" font-size="13" textLength="195.377" font-family="Helvetica">not sufficient and within budget</text><text x="334.67" y="738.628" fill="#334155" font-size="13" textLength="53.586" font-family="Helvetica">continue</text><polygon points="102.865,325.598,347.097,325.598,359.097,337.598,347.097,349.598,102.865,349.598,90.865,337.598,102.865,325.598" fill="#E0F2FE" style="stroke:#0284C7;stroke-width:0.5;stroke-linejoin:miter;stroke-miterlimit:10;"/><text x="228.981" y="363.495" fill="#334155" font-size="13" textLength="20.189" font-family="Helvetica">yes</text><text x="102.865" y="342.642" fill="#000" font-size="13" textLength="244.231" font-family="Helvetica">nothing found, or multi-hop / temporal?</text><text x="359.097" y="333.789" fill="#334155" font-size="13" textLength="15.899" font-family="Helvetica">no</text><polygon points="224.981,796.452,236.981,808.452,224.981,820.452,212.981,808.452,224.981,796.452" fill="#E0F2FE" style="stroke:#0284C7;stroke-width:0.5;stroke-linejoin:miter;stroke-miterlimit:10;"/><text x="230.981" y="792.643" fill="#334155" font-size="13" textLength="26.78" font-family="Helvetica">stop</text><rect x="81.75" y="840.452" width="286.461" height="55.412" fill="#F8FAFC" style="stroke:#64748B;stroke-width:0.5;" rx="6" ry="6"/><text x="91.75" y="864.349" fill="#000" font-size="13" textLength="266.461" font-family="Helvetica">Drop superseded / unmerged-branch notes</text><text x="91.75" y="882.055" fill="#000" font-size="13" textLength="117.364" font-family="Helvetica">or rank them lower</text><polygon points="169.711,915.864,280.25,915.864,292.25,927.864,280.25,939.864,169.711,939.864,157.711,927.864,169.711,915.864" fill="#E0F2FE" style="stroke:#0284C7;stroke-width:0.5;stroke-linejoin:miter;stroke-miterlimit:10;"/><text x="169.711" y="932.908" fill="#000" font-size="13" textLength="110.539" font-family="Helvetica">enough evidence?</text><text x="137.522" y="924.055" fill="#334155" font-size="13" textLength="20.189" font-family="Helvetica">yes</text><text x="292.25" y="924.055" fill="#334155" font-size="13" textLength="15.899" font-family="Helvetica">no</text><rect x="16" y="949.864" width="170.722" height="55.412" fill="#F8FAFC" style="stroke:#64748B;stroke-width:0.5;" rx="6" ry="6"/><text x="26" y="973.761" fill="#000" font-size="13" textLength="150.722" font-family="Helvetica">Return a few short notes</text><text x="26" y="991.467" fill="#000" font-size="13" textLength="103.233" font-weight="700" font-family="Helvetica">sufficient = true</text><rect x="206.722" y="949.864" width="283.757" height="55.412" fill="#F8FAFC" style="stroke:#64748B;stroke-width:0.5;" rx="6" ry="6"/><text x="216.722" y="973.761" fill="#000" font-size="13" textLength="116.74" font-family="Helvetica">Return what exists,</text><text x="336.842" y="973.761" fill="#000" font-size="13" textLength="106.548" font-weight="700" font-family="Helvetica">sufficient = false</text><text x="216.722" y="991.467" fill="#000" font-size="13" textLength="263.757" font-style="italic" font-family="Helvetica">the agent looks elsewhere instead of guessing</text><polygon points="224.981,1011.276,236.981,1023.276,224.981,1035.276,212.981,1023.276,224.981,1011.276" fill="#E0F2FE" style="stroke:#0284C7;stroke-width:0.5;stroke-linejoin:miter;stroke-miterlimit:10;"/><ellipse cx="224.981" cy="1066.276" rx="11" ry="11" fill="none" style="stroke:#222;stroke-width:1;"/><ellipse cx="224.981" cy="1066.276" rx="6" ry="6" fill="#222" style="stroke:#222;stroke-width:1;"/><line x1="224.981" y1="75.068" x2="224.981" y2="95.068" style="stroke:#475569;stroke-width:1;"/><polygon points="220.981,85.068,224.981,95.068,228.981,85.068,224.981,89.068" fill="#475569" style="stroke:#475569;stroke-width:1;stroke-linejoin:miter;stroke-miterlimit:10;"/><line x1="224.981" y1="132.774" x2="224.981" y2="152.774" style="stroke:#475569;stroke-width:1;"/><polygon points="220.981,142.774,224.981,152.774,228.981,142.774,224.981,146.774" fill="#475569" style="stroke:#475569;stroke-width:1;stroke-linejoin:miter;stroke-miterlimit:10;"/><line x1="224.981" y1="190.48" x2="224.981" y2="238.186" style="stroke:#475569;stroke-width:1;"/><polygon points="220.981,228.186,224.981,238.186,228.981,228.186,224.981,232.186" fill="#475569" style="stroke:#475569;stroke-width:1;stroke-linejoin:miter;stroke-miterlimit:10;"/><line x1="224.981" y1="450.407" x2="224.981" y2="470.407" style="stroke:#475569;stroke-width:1;"/><polygon points="220.981,460.407,224.981,470.407,228.981,460.407,224.981,464.407" fill="#475569" style="stroke:#475569;stroke-width:1;stroke-linejoin:miter;stroke-miterlimit:10;"/><line x1="224.981" y1="627.525" x2="224.981" y2="655.025" style="stroke:#475569;stroke-width:1;"/><polygon points="220.981,645.025,224.981,655.025,228.981,645.025,224.981,649.025" fill="#475569" style="stroke:#475569;stroke-width:1;stroke-linejoin:miter;stroke-miterlimit:10;"/><line x1="224.981" y1="552.113" x2="224.981" y2="572.113" style="stroke:#475569;stroke-width:1;"/><polygon points="220.981,562.113,224.981,572.113,228.981,562.113,224.981,566.113" fill="#475569" style="stroke:#475569;stroke-width:1;stroke-linejoin:miter;stroke-miterlimit:10;"/><line x1="334.67" y1="742.437" x2="361.576" y2="742.437" style="stroke:#475569;stroke-width:1;"/><polygon points="357.576,647.525,361.576,637.525,365.576,647.525,361.576,643.525" fill="#475569" style="stroke:#475569;stroke-width:1;stroke-linejoin:miter;stroke-miterlimit:10;"/><line x1="361.576" y1="540.113" x2="361.576" y2="742.437" style="stroke:#475569;stroke-width:1;"/><line x1="361.576" y1="540.113" x2="236.981" y2="540.113" style="stroke:#475569;stroke-width:1;"/><polygon points="246.981,536.113,236.981,540.113,246.981,544.113,242.981,540.113" fill="#475569" style="stroke:#475569;stroke-width:1;stroke-linejoin:miter;stroke-miterlimit:10;"/><line x1="224.981" y1="710.437" x2="224.981" y2="730.437" style="stroke:#475569;stroke-width:1;"/><polygon points="220.981,720.437,224.981,730.437,228.981,720.437,224.981,724.437" fill="#475569" style="stroke:#475569;stroke-width:1;stroke-linejoin:miter;stroke-miterlimit:10;"/><line x1="224.981" y1="508.113" x2="224.981" y2="528.113" style="stroke:#475569;stroke-width:1;"/><polygon points="220.981,518.113,224.981,528.113,228.981,518.113,224.981,522.113" fill="#475569" style="stroke:#475569;stroke-width:1;stroke-linejoin:miter;stroke-miterlimit:10;"/><line x1="224.981" y1="349.598" x2="224.981" y2="412.701" style="stroke:#475569;stroke-width:1;"/><polygon points="220.981,402.701,224.981,412.701,228.981,402.701,224.981,406.701" fill="#475569" style="stroke:#475569;stroke-width:1;stroke-linejoin:miter;stroke-miterlimit:10;"/><line x1="359.097" y1="337.598" x2="403.256" y2="337.598" style="stroke:#475569;stroke-width:1;"/><polygon points="399.256,562.319,403.256,572.319,407.256,562.319,403.256,566.319" fill="#475569" style="stroke:#475569;stroke-width:1;stroke-linejoin:miter;stroke-miterlimit:10;"/><line x1="403.256" y1="337.598" x2="403.256" y2="808.452" style="stroke:#475569;stroke-width:1;"/><line x1="403.256" y1="808.452" x2="236.981" y2="808.452" style="stroke:#475569;stroke-width:1;"/><polygon points="246.981,804.452,236.981,808.452,246.981,812.452,242.981,808.452" fill="#475569" style="stroke:#475569;stroke-width:1;stroke-linejoin:miter;stroke-miterlimit:10;"/><line x1="224.981" y1="754.437" x2="224.981" y2="796.452" style="stroke:#475569;stroke-width:1;"/><polygon points="220.981,786.452,224.981,796.452,228.981,786.452,224.981,790.452" fill="#475569" style="stroke:#475569;stroke-width:1;stroke-linejoin:miter;stroke-miterlimit:10;"/><line x1="224.981" y1="293.598" x2="224.981" y2="325.598" style="stroke:#475569;stroke-width:1;"/><polygon points="220.981,315.598,224.981,325.598,228.981,315.598,224.981,319.598" fill="#475569" style="stroke:#475569;stroke-width:1;stroke-linejoin:miter;stroke-miterlimit:10;"/><line x1="224.981" y1="820.452" x2="224.981" y2="840.452" style="stroke:#475569;stroke-width:1;"/><polygon points="220.981,830.452,224.981,840.452,228.981,830.452,224.981,834.452" fill="#475569" style="stroke:#475569;stroke-width:1;stroke-linejoin:miter;stroke-miterlimit:10;"/><line x1="157.711" y1="927.864" x2="101.361" y2="927.864" style="stroke:#475569;stroke-width:1;"/><line x1="101.361" y1="927.864" x2="101.361" y2="949.864" style="stroke:#475569;stroke-width:1;"/><polygon points="97.361,939.864,101.361,949.864,105.361,939.864,101.361,943.864" fill="#475569" style="stroke:#475569;stroke-width:1;stroke-linejoin:miter;stroke-miterlimit:10;"/><line x1="292.25" y1="927.864" x2="348.601" y2="927.864" style="stroke:#475569;stroke-width:1;"/><line x1="348.601" y1="927.864" x2="348.601" y2="949.864" style="stroke:#475569;stroke-width:1;"/><polygon points="344.601,939.864,348.601,949.864,352.601,939.864,348.601,943.864" fill="#475569" style="stroke:#475569;stroke-width:1;stroke-linejoin:miter;stroke-miterlimit:10;"/><line x1="101.361" y1="1005.276" x2="101.361" y2="1023.276" style="stroke:#475569;stroke-width:1;"/><line x1="101.361" y1="1023.276" x2="212.981" y2="1023.276" style="stroke:#475569;stroke-width:1;"/><polygon points="202.981,1019.276,212.981,1023.276,202.981,1027.276,206.981,1023.276" fill="#475569" style="stroke:#475569;stroke-width:1;stroke-linejoin:miter;stroke-miterlimit:10;"/><line x1="348.601" y1="1005.276" x2="348.601" y2="1023.276" style="stroke:#475569;stroke-width:1;"/><line x1="348.601" y1="1023.276" x2="236.981" y2="1023.276" style="stroke:#475569;stroke-width:1;"/><polygon points="246.981,1019.276,236.981,1023.276,246.981,1027.276,242.981,1023.276" fill="#475569" style="stroke:#475569;stroke-width:1;stroke-linejoin:miter;stroke-miterlimit:10;"/><line x1="224.981" y1="895.864" x2="224.981" y2="915.864" style="stroke:#475569;stroke-width:1;"/><polygon points="220.981,905.864,224.981,915.864,228.981,905.864,224.981,909.864" fill="#475569" style="stroke:#475569;stroke-width:1;stroke-linejoin:miter;stroke-miterlimit:10;"/><line x1="224.981" y1="1035.276" x2="224.981" y2="1055.276" style="stroke:#475569;stroke-width:1;"/><polygon points="220.981,1045.276,224.981,1055.276,228.981,1045.276,224.981,1049.276" fill="#475569" style="stroke:#475569;stroke-width:1;stroke-linejoin:miter;stroke-miterlimit:10;"/><?plantuml-src NLDDZzCm5BpdLmmzDVtOxgvO3esM2WG88N5WaJZruarU6bF73lPpinLQ_XPtVXdFQRjRxILo7CzutipabRQbYHKXyDxGXOwjoLYp8NnsFJoLoXWe6tho0Gg_8WNMpcBSEW7TGaLsUHPOUSwMtuvVYspvWqfs7kow-VKbnbDiQTyxNo6GycMJ5rad43rmZOnc0lxz1QxmXNOOBXtU_rnUNDyWZF0x0vPtP6YdR4cejM7oc2B4kjQb9blkCLtRaGxWHXvjDApdZUkGLEYMvfwCOgfMeo9xp7IDiNLoqcvGksYhMJht35g0gUsSLsQL2o79m7iAkOWuart79vblddI7uyxLnUkJxgJSHQObQbLoIEGYo6XBQLsg68O5sKHCeJX0tjcoSMBw-Exk4roDtS7HATv_lRx9P_WPgmrLkD-dgmyOJnqf7fP2yF6XKxQ2Caw6t7ZLDI21XBKTtoSiBr5HnyqCLh8CiuFycIHKEbk5l3WHVPSKKJPKRfVFVlCAhGv135ojhG3OgqgNoPWL96Xka3QrZUd4kJpqZPPw9VlFs92azZebWeEw71BZ-4X2-S0mVoizTLsYUyp8X84cpyXMkiwM7xpe3B6Jgb8brYmGRKjUN9hVUwbD8uDocbzibFTj2hQ5STBjOcW4MHStuj9ELr8eUXczz8-Zj_8RrDGZI3fyOfnCpaQv1Vj8aqbn9l4PtJVY0JtemEBr2roj132PhErY8JT3RTAsSMuRaAZwXZn1sy2agjI9ZVnmAOB5eZYQaEpv3m00?></g></svg>