<svg xmlns="http://www.w3.org/2000/svg" xmlns:xlink="http://www.w3.org/1999/xlink" version="1.1" data-diagram-type="ACTIVITY" style="width:387px;height:1697px;background:#FFFFFF;" width="387px" height="1697px" viewBox="0 0 387 1697" zoomAndPan="magnify" preserveAspectRatio="none" contentStyleType="text/css"><?plantuml 1.2026.8?><defs/><g font-family="sans-serif" lengthAdjust="spacing"><g class="title" data-source-line="2"><text x="40.838" y="34.966" fill="#000" font-size="14" textLength="303.603" font-weight="700" font-family="Helvetica">What happens when an agent writes a note</text></g><ellipse cx="191.64" cy="65.068" rx="10" ry="10" fill="#222" style="stroke:#222;stroke-width:1;"/><rect x="16" y="95.068" width="351.279" height="73.118" fill="#F8FAFC" style="stroke:#64748B;stroke-width:0.5;" rx="6" ry="6"/><text x="26" y="118.965" fill="#000" font-size="13" textLength="66.209" font-family="Helvetica">Agent calls</text><text x="95.589" y="118.965" fill="#000" font-size="13" textLength="94.042" font-weight="700" font-family="Helvetica">memory_write</text><text x="26" y="136.671" fill="#000" font-size="13" textLength="331.279" font-family="Helvetica">"On 2026-05-15 we moved the month-end job to 22:00</text><text x="26" y="154.377" fill="#000" font-size="13" textLength="315.887" font-family="Helvetica">because the warehouse was downsized to Medium"</text><rect x="72.257" y="178.186" width="259.766" height="405.236" fill="#FFF" style="stroke:#94A3B8;stroke-width:1.5;" rx="6" ry="6"/><path d="M262.424,178.186 L262.424,188.892 L252.424,198.892 L72.257,198.892" style="stroke:#94A3B8;stroke-width:1.5;" fill="none"/><text x="75.257" y="193.083" fill="#000" font-size="13" textLength="180.167" font-family="Helvetica">Cheap code gates (no Jev call)</text><rect x="163.121" y="278.157" width="57.037" height="37.706" fill="#FECACA" style="stroke:#64748B;stroke-width:0.5;" rx="6" ry="6"/><text x="173.121" y="302.054" fill="#000" font-size="13" textLength="37.037" font-family="Helvetica">Reject</text><ellipse cx="191.64" cy="350.657" rx="11" ry="11" fill="none" style="stroke:#222;stroke-width:1;"/><ellipse cx="191.64" cy="350.657" rx="6" ry="6" fill="#222" style="stroke:#222;stroke-width:1;"/><polygon points="94.257,215.892,289.023,215.892,301.023,233.598,289.023,251.304,94.257,251.304,82.257,233.598,94.257,215.892" fill="#E0F2FE" style="stroke:#0284C7;stroke-width:0.5;stroke-linejoin:miter;stroke-miterlimit:10;"/><text x="195.64" y="265.201" fill="#334155" font-size="13" textLength="20.189" font-family="Helvetica">yes</text><text x="94.257" y="229.789" fill="#000" font-size="13" textLength="132.431" font-family="Helvetica">contains a credential?</text><text x="94.257" y="247.495" fill="#000" font-size="13" textLength="194.766" font-family="Helvetica">(keys, tokens, passwords, DSNs)</text><rect x="163.121" y="465.922" width="57.037" height="37.706" fill="#FECACA" style="stroke:#64748B;stroke-width:0.5;" rx="6" ry="6"/><text x="173.121" y="489.819" fill="#000" font-size="13" textLength="37.037" font-family="Helvetica">Reject</text><ellipse cx="191.64" cy="538.422" rx="11" ry="11" fill="none" style="stroke:#222;stroke-width:1;"/><ellipse cx="191.64" cy="538.422" rx="6" ry="6" fill="#222" style="stroke:#222;stroke-width:1;"/><polygon points="117.663,403.657,265.616,403.657,277.616,421.363,265.616,439.069,117.663,439.069,105.663,421.363,117.663,403.657" fill="#E0F2FE" style="stroke:#0284C7;stroke-width:0.5;stroke-linejoin:miter;stroke-miterlimit:10;"/><text x="195.64" y="452.966" fill="#334155" font-size="13" textLength="20.189" font-family="Helvetica">yes</text><text x="117.663" y="417.554" fill="#000" font-size="13" textLength="147.953" font-family="Helvetica">near-duplicate in scope?</text><text x="117.663" y="435.26" fill="#000" font-size="13" textLength="82.497" font-family="Helvetica">cosine ≥ 0.97</text><rect x="18.097" y="593.422" width="347.086" height="486.001" fill="#FFF" style="stroke:#94A3B8;stroke-width:1.5;" rx="6" ry="6"/><path d="M284.743,593.422 L284.743,604.128 L274.743,614.128 L18.097,614.128" style="stroke:#94A3B8;stroke-width:1.5;" fill="none"/><text x="21.097" y="608.319" fill="#000" font-size="13" textLength="256.646" font-family="Helvetica">Jev call #1: typing and screening (batched)</text><rect x="28.097" y="631.128" width="327.086" height="55.412" fill="#F8FAFC" style="stroke:#64748B;stroke-width:0.5;" rx="6" ry="6"/><text x="38.097" y="655.025" fill="#000" font-size="13" textLength="278.577" font-family="Helvetica">Type scores: episodic · semantic · procedural ·</text><text x="38.097" y="672.731" fill="#000" font-size="13" textLength="307.086" font-family="Helvetica">preference · decision · bugfix · convention · gotcha</text><rect x="163.121" y="757.393" width="57.037" height="37.706" fill="#FECACA" style="stroke:#64748B;stroke-width:0.5;" rx="6" ry="6"/><text x="173.121" y="781.29" fill="#000" font-size="13" textLength="37.037" font-family="Helvetica">Reject</text><ellipse cx="191.64" cy="832.746" rx="11" ry="11" fill="none" style="stroke:#222;stroke-width:1;"/><ellipse cx="191.64" cy="832.746" rx="6" ry="6" fill="#222" style="stroke:#222;stroke-width:1;"/><polygon points="103.168,706.54,280.111,706.54,292.111,718.54,280.111,730.54,103.168,730.54,91.168,718.54,103.168,706.54" fill="#E0F2FE" style="stroke:#0284C7;stroke-width:0.5;stroke-linejoin:miter;stroke-miterlimit:10;"/><text x="195.64" y="744.437" fill="#334155" font-size="13" textLength="20.189" font-family="Helvetica">yes</text><text x="103.168" y="723.584" fill="#000" font-size="13" textLength="176.943" font-family="Helvetica">injection aimed at the agent?</text><rect x="86.142" y="948.011" width="210.996" height="55.412" fill="#FECACA" style="stroke:#64748B;stroke-width:0.5;" rx="6" ry="6"/><text x="96.142" y="971.908" fill="#000" font-size="13" textLength="37.037" font-family="Helvetica">Reject</text><text x="96.142" y="989.614" fill="#000" font-size="13" textLength="190.996" font-style="italic" font-family="Helvetica">belongs in git-tracked markdown</text><ellipse cx="191.64" cy="1034.423" rx="11" ry="11" fill="none" style="stroke:#222;stroke-width:1;"/><ellipse cx="191.64" cy="1034.423" rx="6" ry="6" fill="#222" style="stroke:#222;stroke-width:1;"/><polygon points="146.075,885.746,237.205,885.746,249.205,903.452,237.205,921.158,146.075,921.158,134.075,903.452,146.075,885.746" fill="#E0F2FE" style="stroke:#0284C7;stroke-width:0.5;stroke-linejoin:miter;stroke-miterlimit:10;"/><text x="195.64" y="935.055" fill="#334155" font-size="13" textLength="20.189" font-family="Helvetica">yes</text><text x="146.075" y="899.643" fill="#000" font-size="13" textLength="76.583" font-family="Helvetica">work status?</text><text x="146.075" y="917.349" fill="#000" font-size="13" textLength="91.13" font-family="Helvetica">"next step is X"</text><rect x="22.432" y="1089.423" width="338.415" height="105.118" fill="#FFF" style="stroke:#94A3B8;stroke-width:1.5;" rx="6" ry="6"/><path d="M141.476,1089.423 L141.476,1100.129 L131.476,1110.129 L22.432,1110.129" style="stroke:#94A3B8;stroke-width:1.5;" fill="none"/><text x="25.432" y="1104.32" fill="#000" font-size="13" textLength="109.044" font-family="Helvetica">Candidates (code)</text><rect x="32.432" y="1127.129" width="318.415" height="55.412" fill="#F8FAFC" style="stroke:#64748B;stroke-width:0.5;" rx="6" ry="6"/><text x="42.432" y="1151.026" fill="#000" font-size="13" textLength="298.415" font-family="Helvetica">vector + BM25 + shared entities + nearest in time</text><text x="42.432" y="1168.732" fill="#000" font-size="13" textLength="214.032" font-family="Helvetica">merged with reciprocal rank fusion</text><rect x="27.489" y="1204.541" width="328.301" height="145.118" fill="#FFF" style="stroke:#94A3B8;stroke-width:1.5;" rx="6" ry="6"/><path d="M218.956,1204.541 L218.956,1215.247 L208.956,1225.247 L27.489,1225.247" style="stroke:#94A3B8;stroke-width:1.5;" fill="none"/><text x="30.489" y="1219.438" fill="#000" font-size="13" textLength="181.467" font-family="Helvetica">Jev call #2: relations (batched)</text><rect x="37.489" y="1242.247" width="308.301" height="37.706" fill="#F8FAFC" style="stroke:#64748B;stroke-width:0.5;" rx="6" ry="6"/><text x="47.489" y="1266.144" fill="#000" font-size="13" textLength="288.301" font-family="Helvetica">Semantic / causal link probability per candidate</text><rect x="123.589" y="1299.953" width="136.102" height="37.706" fill="#F8FAFC" style="stroke:#64748B;stroke-width:0.5;" rx="6" ry="6"/><text x="133.589" y="1323.85" fill="#000" font-size="13" textLength="116.102" font-family="Helvetica">Store edges ≥ 0.60</text><rect x="57.145" y="1369.659" width="268.989" height="55.412" fill="#F8FAFC" style="stroke:#64748B;stroke-width:0.5;" rx="6" ry="6"/><text x="67.145" y="1393.556" fill="#000" font-size="13" textLength="161.031" font-family="Helvetica">Entity and temporal edges</text><text x="67.145" y="1411.262" fill="#000" font-size="13" textLength="248.989" font-family="Helvetica">(created by code, Jev cannot order dates)</text><rect x="31.034" y="1445.071" width="321.21" height="37.706" fill="#F8FAFC" style="stroke:#64748B;stroke-width:0.5;" rx="6" ry="6"/><text x="41.034" y="1468.968" fill="#000" font-size="13" textLength="301.21" font-family="Helvetica">Store note + embedding + git branch and commit</text><rect x="124.004" y="1553.63" width="135.271" height="37.706" fill="#F8FAFC" style="stroke:#64748B;stroke-width:0.5;" rx="6" ry="6"/><text x="134.004" y="1577.527" fill="#000" font-size="13" textLength="115.271" font-family="Helvetica">Consolidation pass</text><polygon points="124.963,1502.777,258.317,1502.777,270.317,1514.777,258.317,1526.777,124.963,1526.777,112.963,1514.777,124.963,1502.777" fill="#E0F2FE" style="stroke:#0284C7;stroke-width:0.5;stroke-linejoin:miter;stroke-miterlimit:10;"/><text x="195.64" y="1540.674" fill="#334155" font-size="13" textLength="20.189" font-family="Helvetica">yes</text><text x="124.963" y="1519.821" fill="#000" font-size="13" textLength="133.354" font-family="Helvetica">20th successful write?</text><polygon points="191.64,1611.336,203.64,1623.336,191.64,1635.336,179.64,1623.336,191.64,1611.336" fill="#E0F2FE" style="stroke:#0284C7;stroke-width:0.5;stroke-linejoin:miter;stroke-miterlimit:10;"/><ellipse cx="191.64" cy="1666.336" rx="11" ry="11" fill="none" style="stroke:#222;stroke-width:1;"/><ellipse cx="191.64" cy="1666.336" rx="6" ry="6" fill="#222" style="stroke:#222;stroke-width:1;"/><line x1="191.64" y1="75.068" x2="191.64" y2="95.068" style="stroke:#475569;stroke-width:1;"/><polygon points="187.64,85.068,191.64,95.068,195.64,85.068,191.64,89.068" fill="#475569" style="stroke:#475569;stroke-width:1;stroke-linejoin:miter;stroke-miterlimit:10;"/><line x1="191.64" y1="315.863" x2="191.64" y2="339.657" style="stroke:#475569;stroke-width:1;"/><polygon points="187.64,329.657,191.64,339.657,195.64,329.657,191.64,333.657" fill="#475569" style="stroke:#475569;stroke-width:1;stroke-linejoin:miter;stroke-miterlimit:10;"/><line x1="191.64" y1="251.304" x2="191.64" y2="278.157" style="stroke:#475569;stroke-width:1;"/><polygon points="187.64,268.157,191.64,278.157,195.64,268.157,191.64,272.157" fill="#475569" style="stroke:#475569;stroke-width:1;stroke-linejoin:miter;stroke-miterlimit:10;"/><line x1="301.023" y1="233.598" x2="313.023" y2="233.598" style="stroke:#475569;stroke-width:1;"/><polygon points="309.023,309.657,313.023,319.657,317.023,309.657,313.023,313.657" fill="#475569" style="stroke:#475569;stroke-width:1;stroke-linejoin:miter;stroke-miterlimit:10;"/><line x1="313.023" y1="233.598" x2="313.023" y2="383.657" style="stroke:#475569;stroke-width:1;"/><line x1="313.023" y1="383.657" x2="191.64" y2="383.657" style="stroke:#475569;stroke-width:1;"/><line x1="191.64" y1="383.657" x2="191.64" y2="403.657" style="stroke:#475569;stroke-width:1;"/><polygon points="187.64,393.657,191.64,403.657,195.64,393.657,191.64,397.657" fill="#475569" style="stroke:#475569;stroke-width:1;stroke-linejoin:miter;stroke-miterlimit:10;"/><line x1="191.64" y1="503.628" x2="191.64" y2="527.422" style="stroke:#475569;stroke-width:1;"/><polygon points="187.64,517.422,191.64,527.422,195.64,517.422,191.64,521.422" fill="#475569" style="stroke:#475569;stroke-width:1;stroke-linejoin:miter;stroke-miterlimit:10;"/><line x1="191.64" y1="439.069" x2="191.64" y2="465.922" style="stroke:#475569;stroke-width:1;"/><polygon points="187.64,455.922,191.64,465.922,195.64,455.922,191.64,459.922" fill="#475569" style="stroke:#475569;stroke-width:1;stroke-linejoin:miter;stroke-miterlimit:10;"/><line x1="277.616" y1="421.363" x2="289.616" y2="421.363" style="stroke:#475569;stroke-width:1;"/><polygon points="285.616,497.422,289.616,507.422,293.616,497.422,289.616,501.422" fill="#475569" style="stroke:#475569;stroke-width:1;stroke-linejoin:miter;stroke-miterlimit:10;"/><line x1="289.616" y1="421.363" x2="289.616" y2="571.422" style="stroke:#475569;stroke-width:1;"/><line x1="289.616" y1="571.422" x2="191.64" y2="571.422" style="stroke:#475569;stroke-width:1;"/><line x1="191.64" y1="571.422" x2="191.64" y2="631.128" style="stroke:#475569;stroke-width:1;"/><polygon points="187.64,621.128,191.64,631.128,195.64,621.128,191.64,625.128" fill="#475569" style="stroke:#475569;stroke-width:1;stroke-linejoin:miter;stroke-miterlimit:10;"/><line x1="191.64" y1="168.186" x2="191.64" y2="215.892" style="stroke:#475569;stroke-width:1;"/><polygon points="187.64,205.892,191.64,215.892,195.64,205.892,191.64,209.892" fill="#475569" style="stroke:#475569;stroke-width:1;stroke-linejoin:miter;stroke-miterlimit:10;"/><line x1="191.64" y1="795.099" x2="191.64" y2="821.746" style="stroke:#475569;stroke-width:1;"/><polygon points="187.64,811.746,191.64,821.746,195.64,811.746,191.64,815.746" fill="#475569" style="stroke:#475569;stroke-width:1;stroke-linejoin:miter;stroke-miterlimit:10;"/><line x1="191.64" y1="730.54" x2="191.64" y2="757.393" style="stroke:#475569;stroke-width:1;"/><polygon points="187.64,747.393,191.64,757.393,195.64,747.393,191.64,751.393" fill="#475569" style="stroke:#475569;stroke-width:1;stroke-linejoin:miter;stroke-miterlimit:10;"/><line x1="292.111" y1="718.54" x2="304.111" y2="718.54" style="stroke:#475569;stroke-width:1;"/><polygon points="300.111,791.746,304.111,801.746,308.111,791.746,304.111,795.746" fill="#475569" style="stroke:#475569;stroke-width:1;stroke-linejoin:miter;stroke-miterlimit:10;"/><line x1="304.111" y1="718.54" x2="304.111" y2="865.746" style="stroke:#475569;stroke-width:1;"/><line x1="304.111" y1="865.746" x2="191.64" y2="865.746" style="stroke:#475569;stroke-width:1;"/><line x1="191.64" y1="865.746" x2="191.64" y2="885.746" style="stroke:#475569;stroke-width:1;"/><polygon points="187.64,875.746,191.64,885.746,195.64,875.746,191.64,879.746" fill="#475569" style="stroke:#475569;stroke-width:1;stroke-linejoin:miter;stroke-miterlimit:10;"/><line x1="191.64" y1="686.54" x2="191.64" y2="706.54" style="stroke:#475569;stroke-width:1;"/><polygon points="187.64,696.54,191.64,706.54,195.64,696.54,191.64,700.54" fill="#475569" style="stroke:#475569;stroke-width:1;stroke-linejoin:miter;stroke-miterlimit:10;"/><line x1="191.64" y1="1003.423" x2="191.64" y2="1023.423" style="stroke:#475569;stroke-width:1;"/><polygon points="187.64,1013.423,191.64,1023.423,195.64,1013.423,191.64,1017.423" fill="#475569" style="stroke:#475569;stroke-width:1;stroke-linejoin:miter;stroke-miterlimit:10;"/><line x1="191.64" y1="921.158" x2="191.64" y2="948.011" style="stroke:#475569;stroke-width:1;"/><polygon points="187.64,938.011,191.64,948.011,195.64,938.011,191.64,942.011" fill="#475569" style="stroke:#475569;stroke-width:1;stroke-linejoin:miter;stroke-miterlimit:10;"/><line x1="249.205" y1="903.452" x2="307.138" y2="903.452" style="stroke:#475569;stroke-width:1;"/><polygon points="303.138,988.364,307.138,998.364,311.138,988.364,307.138,992.364" fill="#475569" style="stroke:#475569;stroke-width:1;stroke-linejoin:miter;stroke-miterlimit:10;"/><line x1="307.138" y1="903.452" x2="307.138" y2="1067.423" style="stroke:#475569;stroke-width:1;"/><line x1="307.138" y1="1067.423" x2="191.64" y2="1067.423" style="stroke:#475569;stroke-width:1;"/><line x1="191.64" y1="1067.423" x2="191.64" y2="1127.129" style="stroke:#475569;stroke-width:1;"/><polygon points="187.64,1117.129,191.64,1127.129,195.64,1117.129,191.64,1121.129" fill="#475569" style="stroke:#475569;stroke-width:1;stroke-linejoin:miter;stroke-miterlimit:10;"/><line x1="191.64" y1="1279.953" x2="191.64" y2="1299.953" style="stroke:#475569;stroke-width:1;"/><polygon points="187.64,1289.953,191.64,1299.953,195.64,1289.953,191.64,1293.953" fill="#475569" style="stroke:#475569;stroke-width:1;stroke-linejoin:miter;stroke-miterlimit:10;"/><line x1="191.64" y1="1182.541" x2="191.64" y2="1242.247" style="stroke:#475569;stroke-width:1;"/><polygon points="187.64,1232.247,191.64,1242.247,195.64,1232.247,191.64,1236.247" fill="#475569" style="stroke:#475569;stroke-width:1;stroke-linejoin:miter;stroke-miterlimit:10;"/><line x1="191.64" y1="1337.659" x2="191.64" y2="1369.659" style="stroke:#475569;stroke-width:1;"/><polygon points="187.64,1359.659,191.64,1369.659,195.64,1359.659,191.64,1363.659" fill="#475569" style="stroke:#475569;stroke-width:1;stroke-linejoin:miter;stroke-miterlimit:10;"/><line x1="191.64" y1="1425.071" x2="191.64" y2="1445.071" style="stroke:#475569;stroke-width:1;"/><polygon points="187.64,1435.071,191.64,1445.071,195.64,1435.071,191.64,1439.071" fill="#475569" style="stroke:#475569;stroke-width:1;stroke-linejoin:miter;stroke-miterlimit:10;"/><line x1="191.64" y1="1526.777" x2="191.64" y2="1553.63" style="stroke:#475569;stroke-width:1;"/><polygon points="187.64,1543.63,191.64,1553.63,195.64,1543.63,191.64,1547.63" fill="#475569" style="stroke:#475569;stroke-width:1;stroke-linejoin:miter;stroke-miterlimit:10;"/><line x1="270.317" y1="1514.777" x2="282.317" y2="1514.777" style="stroke:#475569;stroke-width:1;"/><polygon points="278.317,1562.483,282.317,1572.483,286.317,1562.483,282.317,1566.483" fill="#475569" style="stroke:#475569;stroke-width:1;stroke-linejoin:miter;stroke-miterlimit:10;"/><line x1="282.317" y1="1514.777" x2="282.317" y2="1623.336" style="stroke:#475569;stroke-width:1;"/><line x1="282.317" y1="1623.336" x2="203.64" y2="1623.336" style="stroke:#475569;stroke-width:1;"/><polygon points="213.64,1619.336,203.64,1623.336,213.64,1627.336,209.64,1623.336" fill="#475569" style="stroke:#475569;stroke-width:1;stroke-linejoin:miter;stroke-miterlimit:10;"/><line x1="191.64" y1="1591.336" x2="191.64" y2="1611.336" style="stroke:#475569;stroke-width:1;"/><polygon points="187.64,1601.336,191.64,1611.336,195.64,1601.336,191.64,1605.336" fill="#475569" style="stroke:#475569;stroke-width:1;stroke-linejoin:miter;stroke-miterlimit:10;"/><line x1="191.64" y1="1482.777" x2="191.64" y2="1502.777" style="stroke:#475569;stroke-width:1;"/><polygon points="187.64,1492.777,191.64,1502.777,195.64,1492.777,191.64,1496.777" fill="#475569" style="stroke:#475569;stroke-width:1;stroke-linejoin:miter;stroke-miterlimit:10;"/><line x1="191.64" y1="1635.336" x2="191.64" y2="1655.336" style="stroke:#475569;stroke-width:1;"/><polygon points="187.64,1645.336,191.64,1655.336,195.64,1645.336,191.64,1649.336" fill="#475569" style="stroke:#475569;stroke-width:1;stroke-linejoin:miter;stroke-miterlimit:10;"/><?plantuml-src fLJ1RXCn4BtlLmpf9KcR9gpK8dQhLYMK0r91eaXmY8IyzcJNpQvjsTvi5yG7y25y0tS-XIzXPfDA2DG384NAU6tFctdlZHzf8-jM8OJOrtYiswPEeeurmhjAHAY4SsW2T1KQ4FGhqKJel8uOG82n4PCGXOz9TZbiIL7N0QRJ1Xlh-m_3oUbqPKQl3QIBz7IsE9azFe4EeR5RL10hZaoiPcWKtDe2eeKqpHQBbIbGYZRWSAOJ7YlBgqu4KBOpGN_a-nQkKL7PepnnL8UEsXeOBIiK3gIbnah1jOwDXPUu7UgRZE1J0g3NC9O4BRJXNgH7HHreKL-ip7Y3VJYYx1lg_WYS2A6pNb7u_EPLc4ou9WFZ7iE4CW5aR_0MPSpXxEpWnTNoSdbvVZviX6WT1TISNkyn3Ge_KwshjQJIG1i8qZeaL6c3DWW_ldo5nV7J9_-8ylbN8kvxXeF76SJUQLEIZeeWFQBXrRWGKLQezgnaRtk7N977a04w7QpI4hv_Wu2D87w6s7ahKRLUrBHQ6UTnZHwDHDvKA7LWT8gBjbphEuw8wYtpk_jUMW8L-PuIRRWltXAw8LN9UIpwuBQB_oARLDlGTn7RG0IF3Dv5Mg837U3zwA7KApEV5rXRKmRMfzHn5hsG6ogj4Nx3zflF_qQ69N6krSw9xCfxihS4PZqSmhFhz8J-GaK-Ly0yHKs73u7TWY5o6P6uMPa6VKb7EXqhyCGqIq4oU64si6wPz_mX2wGPtQW5Vmv_w7vpB-ySUEmePQqf9QKlHA5h7Njmw6bltqa-NABg4L2LLElEjgSBXi-kk8D-i5h4nbbsod2CPekiH_SL5FqmeKVxmJJqcW0D6O4CJ4toP9-VdncY0fi2bMBF7h8aK53FiXemf6qQ7VE49KyNn4nefSGGrcszUwr-Tr6s90vipPqmIJpWUR8JZbNy2G00?></g></svg>